<svg width="318" height="319" xmlns="http://www.w3.org/2000/svg">
 <!-- Created with Method Draw - http://github.com/duopixel/Method-Draw/ -->

 <g>
  <title>background</title>
  <rect fill="#fff" id="canvas_background" height="321" width="320" y="-1" x="-1"/>
  <g display="none" overflow="visible" y="0" x="0" height="100%" width="100%" id="canvasGrid">
   <rect fill="url(#gridpattern)" stroke-width="0" y="0" x="0" height="100%" width="100%"/>
  </g>
 </g>
 <g>
  <title>Layer 1</title>
  <g stroke="null" id="svg_5">
   <path stroke="null" id="svg_4" fill="black" d="m302.90544,130.99608l-10.16497,-5.55535c-2.53394,-1.44922 -5.75777,-0.56904 -7.20512,1.96504c-1.44687,2.52998 -0.56869,5.75592 1.96525,7.20514l10.11371,5.55535c5.0971,2.71422 8.2941,8.00549 8.33099,13.77984l0,0.8904l-93.69335,79.3878l-34.11399,-35.58194c-4.94139,-5.15411 -11.77377,-8.07084 -18.91565,-8.07084c-7.14188,0 -13.97617,2.91673 -18.91565,8.07084l-34.11399,35.58194l-93.69335,-79.3878l0,-0.94363c0.01231,-5.71091 3.12155,-10.96736 8.12215,-13.72661l10.11385,-5.55535c2.53202,-1.44922 3.41221,-4.67516 1.96501,-7.20514c-1.4451,-2.53408 -4.6731,-3.41425 -7.20512,-1.96504l-9.95623,5.55535c-8.34934,4.61781 -13.52806,13.40936 -13.51987,22.95001l0,137.13341c0,14.46964 11.73088,26.20029 26.20052,26.20029l262.00558,0c14.46964,0 26.20029,-11.73065 26.20029,-26.20029l0,-137.13341c0.00814,-9.54066 -5.1704,-18.33221 -13.52007,-22.95001zm-290.40612,160.08343l0,-122.46112l86.41062,73.35958l-49.72987,51.66997l-12.73388,13.15165l-8.22655,0c-8.68097,0 -15.72032,-7.03935 -15.72032,-15.72008zm38.46178,15.72008l96.89083,-101.13418c6.29196,-6.24693 16.44879,-6.24693 22.74123,0l96.89083,101.13418l-216.52289,0zm254.98419,-15.72008c0,8.68073 -7.03935,15.72008 -15.72008,15.72008l-8.22703,0l-13.46833,-14.04373l-48.99518,-50.9336l86.41062,-73.20387l0,122.46112z"/>
  </g>
  <g stroke="null" id="svg_10">
   <path stroke="null" id="svg_9" fill="black" d="m6.567,54.54118l36.8017,0l0,110.40533c0,2.90376 2.35348,5.25714 5.25739,5.25714c2.904,0 5.25739,-2.35339 5.25739,-5.25714l0,-110.40533l136.69202,0c2.90376,0 5.25714,-2.35339 5.25714,-5.25739c0.11728,-18.44601 13.87469,-33.95735 32.17496,-36.27593c0.30186,-0.13968 0.58354,-0.31422 0.84022,-0.52576c19.74806,0.79066 35.34549,17.0372 35.33107,36.8017l0,115.66271c0,2.90376 2.35339,5.25714 5.25763,5.25714c2.90376,0 5.25714,-2.35339 5.25714,-5.25714l0,-115.66271c0,-26.13292 -21.18336,-47.31647 -47.31623,-47.31647l-178.75134,0c-26.13292,0 -47.31647,21.18355 -47.31647,47.31647c0,2.904 2.3535,5.25739 5.25739,5.25739zm42.05908,-42.05908l154.3042,0c-9.6933,7.8265 -15.90987,19.16274 -17.29614,31.54431l-173.49347,0c2.61636,-18.1277 18.16669,-31.57512 36.48541,-31.54431z"/>
  </g>
 </g>
</svg>